#define knots_width 14
#define knots_height 20
static unsigned char knots_bits[] = {
   0xff, 0x3f, 0x80, 0x00, 0x40, 0x01, 0x20, 0x06, 0x10, 0x08, 0x08, 0x30,
   0x00, 0x00, 0x40, 0x00, 0x40, 0x00, 0xff, 0x07, 0x40, 0x18, 0x40, 0x20,
   0x40, 0x10, 0x00, 0x08, 0x00, 0x00, 0xc0, 0x11, 0x40, 0x22, 0x20, 0x22,
   0x40, 0x14, 0x40, 0x08 };
