#define zero_width 30
#define zero_height 17
static unsigned char zero_bits[] = {
   0xf0, 0xff, 0xff, 0x03, 0xfc, 0xff, 0xff, 0x0f, 0x3f, 0x00, 0x00, 0x3c,
   0xf3, 0x00, 0x00, 0x30, 0xe3, 0x03, 0x00, 0x30, 0x83, 0x0f, 0x00, 0x30,
   0x03, 0x1e, 0x00, 0x30, 0x03, 0x78, 0x00, 0x30, 0x03, 0xf0, 0x01, 0x30,
   0x03, 0xc0, 0x03, 0x30, 0x03, 0x00, 0x0f, 0x30, 0x03, 0x00, 0x3e, 0x30,
   0x03, 0x00, 0xf8, 0x30, 0x03, 0x00, 0xe0, 0x31, 0x0f, 0x00, 0x80, 0x3f,
   0xfc, 0xff, 0xff, 0x0f, 0xf0, 0xff, 0xff, 0x03 };
